<?xml version="1.0" encoding="iso-8859-1"?>
<!-- Generator: Adobe Illustrator 19.0.0, SVG Export Plug-In . SVG Version: 6.00 Build 0)  -->
<svg version="1.1" id="Capa_1" xmlns="http://www.w3.org/2000/svg" xmlns:xlink="http://www.w3.org/1999/xlink" x="0px" y="0px"
	 viewBox="0 0 512 512" style="enable-background:new 0 0 512 512;" xml:space="preserve">
<path style="fill:#69A8FF;" d="M278.5,392l-18.6,119.7c-1.199,0-2.701,0.3-3.9,0.3C115.3,512,0,396.7,0,256
	c0-52.5,16.901-101.1,43.9-141.599c7.2,0.599,45-29.401,53.401-30L256,352.899L278.5,392z"/>
<path style="fill:#00C8C8;" d="M278.5,392l-18.6,119.7c-1.199,0-2.701,0.3-3.9,0.3V352.899L278.5,392z"/>
<path style="fill:#69A8FF;" d="M512,256c0,116.7-79.6,216.099-186.7,246.099L268.299,344.8L256,327.7L141.4,166.9L256,88.299
	l98.699-68.5C446.499,58.5,512,150.099,512,256z"/>
<path style="fill:#2e7df7;" d="M512,256c0,116.7-79.6,216.099-186.7,246.099L268.299,344.8L256,327.7V88.299l98.699-68.5
	C446.499,58.5,512,150.099,512,256z"/>
<path style="fill:#93D632;" d="M428.2,305.2c-6.599-14.101-20.7-17.401-33.3-20.101c-24.3-5.4-34.2-10.499-46.8-31.8
	c-17.701-29.099-39.901-31.5-67.5-11.699c-6.601,4.799-12.599,9.3-24.6,11.4c-4.799,0.599-10.201,1.199-17.1,1.199
	c-24,0-38.399-13.801-43.2-25.8c-1.8-4.501-5.4-15.901,3.3-24.6c4.2-4.2,6.301-4.2,20.7,2.999c9.001,4.501,22.5,11.1,36.301,7.8
	c6.301-1.199,12.599-4.501,18.9-10.8c43.5-43.5,131.1,5.7,131.1-61.201c0-25.499-36-83.798-51.301-122.8
	C328.299,8.699,291.4,0,256,0C181.3,0,114.401,33.401,67.599,84.401c-8.399,9.598-16.5,19.499-23.699,30
	c7.2,0.599,15,0.599,23.401,0c9.899-0.3,33.3-1.201,37.2,2.699c0,0,1.5,6-9.901,24.3c-24.6,40.201-32.1,65.099-24.901,83.401
	C76.901,242.8,95.2,247.899,109.9,252.1c21,5.7,80.4,35.099,84,42.599V319.9c0,18.9,18.001,28.801,32.1,37.2
	c5.7,3.3,17.701,10.201,18.6,13.5c0,52.5,4.501,94.6,11.4,125.499c1.199,5.7,2.701,10.801,3.9,15.601c19.2-0.3,44.099-3.3,65.4-9.6
	c0-25.8,0-52.8-0.3-60.899c2.1-5.101,19.501-16.201,30.901-23.701C396.4,391.099,448.299,349.3,428.2,305.2z"/>
<g>
	<path style="fill:#78B22A;" d="M274.9,203.8c-6.301,6.299-12.599,9.6-18.9,10.8V0c35.4,0,72.299,8.699,98.699,19.799
		C370,58.801,406,117.1,406,142.599C406,209.5,318.401,160.3,274.9,203.8z"/>
	<path style="fill:#78B22A;" d="M355.901,417.499c-11.4,7.5-28.801,18.6-30.901,23.701c0.3,8.099,0.3,35.099,0.3,60.899
		c-21.301,6.301-46.199,9.3-65.4,9.6c-1.199-4.799-2.701-9.901-3.9-15.601V253.001c12.001-2.1,17.999-6.601,24.6-11.4
		c27.599-19.801,49.799-17.401,67.5,11.699c12.599,21.301,22.5,26.4,46.8,31.8c12.599,2.701,26.7,6,33.3,20.101
		C448.299,349.3,396.4,391.099,355.901,417.499z"/>
</g>
<g>
</g>
<g>
</g>
<g>
</g>
<g>
</g>
<g>
</g>
<g>
</g>
<g>
</g>
<g>
</g>
<g>
</g>
<g>
</g>
<g>
</g>
<g>
</g>
<g>
</g>
<g>
</g>
<g>
</g>
</svg>
