<svg width="416" height="417" viewBox="0 0 416 417" fill="none" xmlns="http://www.w3.org/2000/svg">
<path fill-rule="evenodd" clip-rule="evenodd" d="M208 0.0390625C93.31 0.0390625 0 93.3491 0 208.039C0 322.729 93.31 416.039 208 416.039C322.69 416.039 416 322.729 416 208.039C416 93.3491 322.69 0.0390625 208 0.0390625ZM210 96.0391C224.24 96.0391 238.161 100.262 250.001 108.173C261.841 116.085 271.07 127.33 276.519 140.486C281.969 153.642 283.395 168.119 280.617 182.086C277.838 196.052 270.981 208.881 260.912 218.951C250.842 229.02 238.013 235.877 224.047 238.656C210.08 241.434 195.603 240.008 182.447 234.558C169.291 229.109 158.046 219.88 150.134 208.04C142.223 196.2 138 182.279 138 168.039C138 148.943 145.586 130.63 159.088 117.127C172.591 103.625 190.904 96.0391 210 96.0391ZM208 384.039C183.725 384.049 159.711 379.024 137.476 369.282C115.241 359.54 95.2687 345.292 78.82 327.439C87.66 281.659 167.06 272.039 208 272.039C248.94 272.039 328.34 281.659 337.18 327.429C320.733 345.286 300.761 359.536 278.526 369.28C256.291 379.024 232.276 384.05 208 384.039Z" fill="black"/>
</svg>
