<svg id="Capa_1" enable-background="new 0 0 512 512" height="512" viewBox="0 0 512 512" width="512" xmlns="http://www.w3.org/2000/svg"><g><path d="m191.779 238.667c0-8.271-6.729-15-15-15h-176.779v30h176.779c8.272 0 15-6.729 15-15z"/><circle cx="427.78" cy="376.599" r="33"/><circle cx="93" cy="376.599" r="33"/><path d="m0 193.667h176.779c24.813 0 45 20.187 45 45s-20.187 45-45 45h-176.779v91.266h30.042c.889-33.969 28.778-61.333 62.958-61.333s62.068 27.365 62.958 61.333h157.602v-272.532h-313.56z"/><path d="m452 159.667h-108.441v215.266h21.263c.889-33.969 28.778-61.333 62.958-61.333 34.179 0 62.068 27.365 62.958 61.333h21.262v-105.266z"/></g></svg>